<?xml version="1.0" standalone="no"?>
<!DOCTYPE svg PUBLIC "-//W3C//DTD SVG 20010904//EN"
 "http://www.w3.org/TR/2001/REC-SVG-20010904/DTD/svg10.dtd">
<svg version="1.0" xmlns="http://www.w3.org/2000/svg"
 width="96.000000pt" height="96.000000pt" viewBox="0 0 96.000000 96.000000"
 preserveAspectRatio="xMidYMid meet">
<metadata>
Created by potrace 1.14, written by Peter Selinger 2001-2017
</metadata>
<g transform="translate(0.000000,96.000000) scale(0.100000,-0.100000)"
fill="#000000" stroke="none">
<path d="M387 870 c-107 -27 -210 -111 -255 -207 -23 -49 -27 -71 -27 -143 0
-71 5 -94 27 -140 14 -30 40 -71 57 -90 28 -32 31 -40 33 -121 l3 -86 65 40
65 40 110 1 c102 1 115 3 176 32 83 40 146 101 185 179 25 52 29 71 29 145 0
70 -5 95 -26 140 -59 125 -186 209 -327 216 -42 2 -94 -1 -115 -6z"/>
</g>
</svg>
